<svg width="458" height="54" viewBox="0 0 458 54" fill="none" xmlns="http://www.w3.org/2000/svg">
<path d="M37.248 51.264C35.072 48.32 32.544 45.024 29.664 41.376C26.848 37.728 23.936 34.016 20.928 30.24C17.92 26.4 15.008 22.688 12.192 19.104C9.44001 15.52 6.97601 12.352 4.80001 9.6V49.824C4.80001 50.464 4.57601 51.04 4.12801 51.552C3.68001 52 3.10401 52.224 2.40001 52.224C1.76001 52.224 1.18401 52 0.672011 51.552C0.224011 51.04 1.09673e-05 50.464 1.09673e-05 49.824V3.26399C1.09673e-05 2.56 0.224011 1.984 0.672011 1.536C1.18401 1.088 1.72801 0.863997 2.30401 0.863997C3.58401 0.863997 4.44801 1.184 4.89601 1.824C6.49601 3.936 8.57601 6.656 11.136 9.984C13.696 13.248 16.48 16.832 19.488 20.736C22.56 24.576 25.632 28.48 28.704 32.448C31.84 36.352 34.72 40.032 37.344 43.488V3.26399C37.344 2.56 37.568 1.984 38.016 1.536C38.528 1.088 39.104 0.863997 39.744 0.863997C40.448 0.863997 41.024 1.088 41.472 1.536C41.92 1.984 42.144 2.56 42.144 3.26399V49.824C42.144 50.464 41.92 51.04 41.472 51.552C41.024 52 40.48 52.224 39.84 52.224C38.56 52.224 37.696 51.904 37.248 51.264ZM63.3375 52.224C62.6975 52.224 62.1215 52 61.6095 51.552C61.1615 51.04 60.9375 50.464 60.9375 49.824V3.26399C60.9375 2.62399 61.1295 2.08 61.5135 1.632C61.9615 1.12 62.4735 0.863997 63.0495 0.863997H89.9295C90.6335 0.863997 91.2095 1.088 91.6575 1.536C92.1055 1.984 92.3295 2.56 92.3295 3.26399C92.3295 3.904 92.1055 4.48 91.6575 4.992C91.2095 5.44 90.6335 5.664 89.9295 5.664H65.7375V22.368H85.8015C86.5055 22.368 87.0815 22.592 87.5295 23.04C87.9775 23.488 88.2015 24.064 88.2015 24.768C88.2015 25.408 87.9775 25.984 87.5295 26.496C87.0815 26.944 86.5055 27.168 85.8015 27.168H65.7375V47.424H90.1215C90.8255 47.424 91.4015 47.648 91.8495 48.096C92.2975 48.544 92.5215 49.12 92.5215 49.824C92.5215 50.464 92.2975 51.04 91.8495 51.552C91.4015 52 90.8255 52.224 90.1215 52.224H63.3375ZM111.367 31.68C111.367 36.992 112.871 41.088 115.879 43.968C118.951 46.848 122.887 48.288 127.687 48.288C132.999 48.288 137.095 46.848 139.975 43.968C142.919 41.024 144.391 36.832 144.391 31.392V3.26399C144.391 2.56 144.615 1.984 145.063 1.536C145.575 1.088 146.151 0.863997 146.791 0.863997C147.495 0.863997 148.071 1.088 148.519 1.536C148.967 1.984 149.191 2.56 149.191 3.26399V31.392C149.191 38.368 147.303 43.744 143.527 47.52C139.815 51.232 134.535 53.088 127.687 53.088C121.479 53.088 116.391 51.232 112.423 47.52C108.519 43.808 106.567 38.528 106.567 31.68V3.26399C106.567 2.56 106.791 1.984 107.239 1.536C107.751 1.088 108.327 0.863997 108.967 0.863997C109.671 0.863997 110.247 1.088 110.695 1.536C111.143 1.984 111.367 2.56 111.367 3.26399V31.68ZM186.533 53.184C185.573 53.184 184.773 52.576 184.133 51.36C183.365 49.888 182.309 47.744 180.965 44.928C179.621 42.048 178.117 38.848 176.453 35.328C174.853 31.744 173.221 28.128 171.557 24.48C169.957 20.832 168.485 17.44 167.141 14.304C165.861 11.104 164.869 8.512 164.165 6.528C163.909 5.824 163.685 5.152 163.493 4.512C163.301 3.872 163.205 3.424 163.205 3.168C163.205 2.592 163.397 2.048 163.781 1.536C164.165 1.024 164.773 0.767998 165.605 0.767998C166.117 0.767998 166.597 0.927998 167.045 1.248C167.493 1.504 167.781 1.888 167.909 2.39999C168.549 4.448 169.445 6.944 170.597 9.888C171.749 12.768 173.029 15.84 174.437 19.104C175.845 22.368 177.285 25.664 178.757 28.992C180.229 32.256 181.637 35.328 182.981 38.208C184.325 41.024 185.509 43.456 186.533 45.504C187.813 42.88 189.317 39.744 191.045 36.096C192.773 32.384 194.501 28.512 196.229 24.48C198.021 20.448 199.685 16.512 201.221 12.672C202.821 8.832 204.101 5.44 205.061 2.496C205.445 1.408 206.245 0.863997 207.461 0.863997C208.101 0.863997 208.645 1.12 209.093 1.632C209.541 2.08 209.765 2.656 209.765 3.36C209.765 3.552 209.669 3.936 209.477 4.512C209.349 5.088 209.061 5.984 208.613 7.2C207.781 9.376 206.693 12.032 205.349 15.168C204.069 18.304 202.629 21.664 201.029 25.248C199.493 28.832 197.925 32.352 196.325 35.808C194.725 39.264 193.253 42.4 191.909 45.216C190.565 48.032 189.477 50.272 188.645 51.936C188.261 52.768 187.557 53.184 186.533 53.184ZM226.369 52.224C225.729 52.224 225.153 52 224.641 51.552C224.193 51.04 223.969 50.464 223.969 49.824V3.26399C223.969 2.62399 224.161 2.08 224.545 1.632C224.993 1.12 225.505 0.863997 226.081 0.863997H252.961C253.665 0.863997 254.241 1.088 254.689 1.536C255.137 1.984 255.361 2.56 255.361 3.26399C255.361 3.904 255.137 4.48 254.689 4.992C254.241 5.44 253.665 5.664 252.961 5.664H228.769V22.368H248.833C249.537 22.368 250.113 22.592 250.561 23.04C251.009 23.488 251.233 24.064 251.233 24.768C251.233 25.408 251.009 25.984 250.561 26.496C250.113 26.944 249.537 27.168 248.833 27.168H228.769V47.424H253.153C253.857 47.424 254.433 47.648 254.881 48.096C255.329 48.544 255.553 49.12 255.553 49.824C255.553 50.464 255.329 51.04 254.881 51.552C254.433 52 253.857 52.224 253.153 52.224H226.369Z" fill="white"/>
<path d="M273.15 52.224C272.51 52.224 271.934 52 271.422 51.552C270.974 51.04 270.75 50.464 270.75 49.824V3.26399C270.75 2.56 270.974 1.984 271.422 1.536C271.934 1.088 272.51 0.863997 273.15 0.863997C273.854 0.863997 274.43 1.088 274.878 1.536C275.326 1.984 275.55 2.56 275.55 3.26399V47.424H299.166C299.87 47.424 300.446 47.648 300.894 48.096C301.342 48.544 301.566 49.12 301.566 49.824C301.566 50.464 301.342 51.04 300.894 51.552C300.446 52 299.87 52.224 299.166 52.224H273.15ZM356.322 52.224C355.234 52.224 354.498 51.712 354.114 50.688C353.474 48.96 352.706 47.04 351.81 44.928C350.914 42.816 349.954 40.608 348.93 38.304H321.858C320.962 40.608 320.098 42.816 319.266 44.928C318.498 46.976 317.794 48.864 317.154 50.592C316.962 51.104 316.642 51.52 316.194 51.84C315.746 52.096 315.266 52.224 314.754 52.224C314.178 52.224 313.634 52 313.122 51.552C312.674 51.04 312.45 50.432 312.45 49.728C312.45 49.536 312.482 49.28 312.546 48.96C312.674 48.576 312.962 47.84 313.41 46.752C314.498 43.872 315.778 40.576 317.25 36.864C318.786 33.152 320.418 29.28 322.146 25.248C323.874 21.216 325.634 17.152 327.426 13.056C329.218 8.96 330.946 5.088 332.61 1.43999C333.058 0.479996 333.826 -3.8147e-06 334.914 -3.8147e-06H335.298C336.45 -3.8147e-06 337.218 0.447996 337.602 1.344C339.33 5.056 341.154 9.056 343.074 13.344C345.058 17.632 346.978 21.888 348.834 26.112C350.69 30.272 352.386 34.176 353.922 37.824C355.458 41.408 356.706 44.384 357.666 46.752C358.178 47.904 358.466 48.672 358.53 49.056C358.658 49.44 358.722 49.696 358.722 49.824C358.722 50.464 358.466 51.04 357.954 51.552C357.506 52 356.962 52.224 356.322 52.224ZM346.914 33.504C345.058 29.216 343.106 24.832 341.058 20.352C339.01 15.872 337.026 11.616 335.106 7.584C333.314 11.68 331.426 15.968 329.442 20.448C327.522 24.864 325.666 29.216 323.874 33.504H346.914ZM375.338 52.224C374.698 52.224 374.122 52 373.61 51.552C373.162 51.04 372.938 50.464 372.938 49.824V3.26399C372.938 2.56 373.162 1.984 373.61 1.536C374.122 1.088 374.698 0.863997 375.338 0.863997H388.682C391.498 0.863997 393.866 1.28 395.786 2.112C397.706 2.944 399.274 3.936 400.49 5.088C401.578 6.176 402.442 7.552 403.082 9.216C403.722 10.816 404.042 12.384 404.042 13.92C404.042 15.648 403.722 17.312 403.082 18.912C402.442 20.448 401.578 21.76 400.49 22.848C400.298 23.04 400.074 23.264 399.818 23.52C399.626 23.712 399.37 23.904 399.05 24.096C401.226 24.992 403.018 26.144 404.426 27.552C407.242 30.368 408.65 33.728 408.65 37.632C408.65 39.36 408.33 41.088 407.69 42.816C407.05 44.48 406.058 45.984 404.714 47.328C403.306 48.736 401.45 49.92 399.146 50.88C396.842 51.776 393.866 52.224 390.218 52.224H375.338ZM389.546 22.464C391.21 22.336 392.682 21.984 393.962 21.408C395.306 20.768 396.33 20.096 397.034 19.392C398.506 18.048 399.242 16.224 399.242 13.92C399.242 11.808 398.506 10.016 397.034 8.544C396.202 7.648 395.082 6.944 393.674 6.432C392.33 5.92 390.666 5.664 388.682 5.664H377.738V22.464H389.546ZM377.738 27.264V47.424H390.218C393.034 47.424 395.306 47.104 397.034 46.464C398.826 45.824 400.234 44.96 401.258 43.872C402.986 42.144 403.85 40.064 403.85 37.632C403.85 35.136 402.89 32.928 400.97 31.008C398.474 28.512 394.986 27.264 390.506 27.264H377.738ZM449.768 7.2C448.232 6.56 446.536 6.048 444.68 5.664C442.888 5.28 440.52 5.088 437.576 5.088C434.312 5.088 431.72 5.92 429.8 7.584C427.88 9.184 426.92 11.008 426.92 13.056C426.92 15.104 427.816 16.96 429.608 18.624C431.4 20.288 434.888 21.728 440.072 22.944C444.68 23.968 448.232 25.28 450.728 26.88C453.288 28.48 455.08 30.304 456.104 32.352C457.128 34.336 457.64 36.544 457.64 38.976C457.64 41.344 457.032 43.616 455.816 45.792C454.664 47.904 452.744 49.664 450.056 51.072C447.432 52.416 443.912 53.088 439.496 53.088C433.224 53.088 427.432 51.616 422.12 48.672C421.288 48.16 420.872 47.456 420.872 46.56C420.872 45.984 421.096 45.44 421.544 44.928C421.992 44.416 422.568 44.16 423.272 44.16C423.656 44.16 424.04 44.256 424.424 44.448C428.968 47.008 433.992 48.288 439.496 48.288C443.848 48.288 447.144 47.392 449.384 45.6C451.688 43.744 452.84 41.536 452.84 38.976C452.84 36.288 451.752 34.048 449.576 32.256C447.464 30.464 443.976 28.96 439.112 27.744C434.568 26.592 431.048 25.28 428.552 23.808C426.12 22.336 424.424 20.672 423.464 18.816C422.568 16.96 422.12 14.912 422.12 12.672C422.12 10.624 422.696 8.672 423.848 6.816C425.064 4.896 426.824 3.328 429.128 2.112C431.432 0.895998 434.248 0.287998 437.576 0.287998C441.096 0.287998 443.912 0.575998 446.024 1.152C448.2 1.664 450.472 2.4 452.84 3.36C453.864 3.744 454.376 4.48 454.376 5.568C454.376 6.208 454.12 6.784 453.608 7.296C453.16 7.744 452.616 7.968 451.976 7.968C451.848 7.968 451.656 7.936 451.4 7.872C451.144 7.744 450.6 7.52 449.768 7.2Z" fill="#00F0FF"/>
</svg>
