<svg width="32" height="32" viewBox="0 0 32 32" fill="none" xmlns="http://www.w3.org/2000/svg">
  <defs>
    <linearGradient id="neuve-gradient" x1="0%" y1="0%" x2="100%" y2="100%">
      <stop offset="0%" style="stop-color:#436DCC;stop-opacity:1" />
      <stop offset="50%" style="stop-color:#4B72CC;stop-opacity:1" />
      <stop offset="100%" style="stop-color:#9C27B0;stop-opacity:1" />
    </linearGradient>
  </defs>
  
  <!-- Spark/Star shape inspired by Gemini -->
  <path d="M16 2L18.5 10.5L27 13L18.5 15.5L16 24L13.5 15.5L5 13L13.5 10.5L16 2Z" fill="url(#neuve-gradient)"/>
  <path d="M24 8L25.5 12.5L30 14L25.5 15.5L24 20L22.5 15.5L18 14L22.5 12.5L24 8Z" fill="url(#neuve-gradient)" opacity="0.7"/>
  <path d="M8 20L9.5 24.5L14 26L9.5 27.5L8 32L6.5 27.5L2 26L6.5 24.5L8 20Z" fill="url(#neuve-gradient)" opacity="0.5"/>
</svg>
